<svg width="43" height="43" viewBox="0 0 43 43" fill="none" xmlns="http://www.w3.org/2000/svg">
<path d="M11.4318 14.4992C11.0955 10.9327 10.922 7.97348 10.9112 5.6215C10.9041 4.05352 11.2668 2.89985 11.9994 2.16049C12.7321 1.42114 13.8824 1.04788 15.4504 1.04072L23.1303 1.00565C24.8103 0.997983 26.028 1.36843 26.7834 2.11698C27.5549 2.88147 27.9445 4.1037 27.9522 5.78369L27.9916 14.4236L24.6316 14.4389L24.5966 6.75902C24.5922 5.79903 24.11 5.32123 23.15 5.32561L15.4701 5.36068C15.1021 5.36236 14.8066 5.46771 14.5835 5.67673C14.3765 5.90168 14.2738 6.18215 14.2754 6.51815C14.2769 6.85414 14.2786 7.22214 14.2804 7.62214C14.2982 8.02206 14.3161 8.43798 14.3341 8.8699C14.3521 9.30183 14.37 9.73375 14.388 10.1657C14.4061 10.6136 14.4407 11.1814 14.4918 11.8692C14.543 12.573 14.603 13.4447 14.6717 14.4844L11.4318 14.4992Z" fill="#333333"/>
<path d="M14.16 24.4C14.16 25.6 13.816 26.544 13.128 27.232C12.456 27.904 11.52 28.24 10.32 28.24H4.8C3.6 28.24 2.656 27.904 1.968 27.232C1.296 26.544 0.96 25.6 0.96 24.4V18.88C0.96 17.68 1.296 16.744 1.968 16.072C2.656 15.384 3.6 15.04 4.8 15.04H10.32C11.52 15.04 12.456 15.384 13.128 16.072C13.816 16.744 14.16 17.68 14.16 18.88V24.4ZM9.96 19.24C9.96 18.6 9.64 18.28 9 18.28H6.12C5.48 18.28 5.16 18.6 5.16 19.24V24.04C5.16 24.68 5.48 25 6.12 25H9C9.64 25 9.96 24.68 9.96 24.04V19.24Z" fill="#8F00FF"/>
<path d="M23.68 30.6C22.608 30.76 21.584 30.84 20.608 30.84C19.648 30.84 18.84 30.512 18.184 29.856C17.528 29.2 17.2 28.328 17.2 27.24V13.8H21.4V26.64C21.4 26.88 21.48 27.08 21.64 27.24C21.8 27.4 22 27.48 22.24 27.48H23.68V30.6Z" fill="#333333"/>
<path d="M17.511 33.7258C17.557 34.7327 17.8442 35.7607 18.3726 36.8097L26.8838 36.421L27.0754 40.6166L14.3686 41.1969L14.1989 37.4808L15.7463 37.1699C14.4848 35.85 13.8197 34.4389 13.7511 32.9365L13.7018 31.8576L17.418 31.6879L17.511 33.7258Z" fill="#333333"/>
<path d="M39.16 24.4C39.16 25.6 38.816 26.544 38.128 27.232C37.456 27.904 36.52 28.24 35.32 28.24H29.8C28.6 28.24 27.656 27.904 26.968 27.232C26.296 26.544 25.96 25.6 25.96 24.4V18.88C25.96 17.68 26.296 16.744 26.968 16.072C27.656 15.384 28.6 15.04 29.8 15.04H35.32C36.52 15.04 37.456 15.384 38.128 16.072C38.816 16.744 39.16 17.68 39.16 18.88V24.4ZM34.96 19.24C34.96 18.6 34.64 18.28 34 18.28H31.12C30.48 18.28 30.16 18.6 30.16 19.24V24.04C30.16 24.68 30.48 25 31.12 25H34C34.64 25 34.96 24.68 34.96 24.04V19.24Z" fill="#8F00FF"/>
</svg>
